# xmcd
#
# Track frame offsets: 
#        150
#        26161
#        57136
#        75729
#        113911
#        144122
#        173501
#        194877
#        221459
#        240731
#        275011
#        302213
#
# Disc length: 4444 seconds
#
# Revision: 2
# Processed by: cddbd v1.5.2PL0 Copyright (c) Steve Scherf et al.
# Submitted via: ExactAudioCopy v0.99pb5
#
DISCID=aa115a0c
DTITLE=Los Van Van - Havana Sí! - CD 2
DYEAR=2009
DGENRE=Salsa
TTITLE0=Qué Tiene Van Van
TTITLE1=De La Habana a Matanzas
TTITLE2=Esto te pone la cabeza mala
TTITLE3=Soy todo
TTITLE4=Ni bombones ni caramelos
TTITLE5=Regrésamelo todo
TTITLE6=Somos cubanos
TTITLE7=Permiso que llegó Van Van
TTITLE8=La bomba soy yo
TTITLE9=Timpop con Birdland
TTITLE10=La buena
TTITLE11=El montuno
EXTD=YEAR: 2009
EXTT0=
EXTT1=
EXTT2=
EXTT3=
EXTT4=
EXTT5=
EXTT6=
EXTT7=
EXTT8=
EXTT9=
EXTT10=
EXTT11=
PLAYORDER=
